<?xml version="1.0" encoding="UTF-8" standalone="no"?>
<svg
   xmlns:dc="http://purl.org/dc/elements/1.1/"
   xmlns:cc="http://creativecommons.org/ns#"
   xmlns:rdf="http://www.w3.org/1999/02/22-rdf-syntax-ns#"
   xmlns:svg="http://www.w3.org/2000/svg"
   xmlns="http://www.w3.org/2000/svg"
   xmlns:sodipodi="http://sodipodi.sourceforge.net/DTD/sodipodi-0.dtd"
   xmlns:inkscape="http://www.inkscape.org/namespaces/inkscape"
   aria-hidden="true"
   data-prefix="fab"
   data-icon="gitlab"
   class="svg-inline--fa fa-gitlab fa-w-16"
   role="img"
   viewBox="0 0 512 512"
   version="1.1"
   id="svg3785"
   sodipodi:docname="gitlab-brands.svg"
   inkscape:version="0.92.2 2405546, 2018-03-11">
  <metadata
     id="metadata3791">
    <rdf:RDF>
      <cc:Work
         rdf:about="">
        <dc:format>image/svg+xml</dc:format>
        <dc:type
           rdf:resource="http://purl.org/dc/dcmitype/StillImage" />
        <dc:title></dc:title>
      </cc:Work>
    </rdf:RDF>
  </metadata>
  <defs
     id="defs3789" />
  <sodipodi:namedview
     pagecolor="#ffffff"
     bordercolor="#666666"
     borderopacity="1"
     objecttolerance="10"
     gridtolerance="10"
     guidetolerance="10"
     inkscape:pageopacity="0"
     inkscape:pageshadow="2"
     inkscape:window-width="1497"
     inkscape:window-height="540"
     id="namedview3787"
     showgrid="false"
     inkscape:zoom="0.4609375"
     inkscape:cx="-201.76271"
     inkscape:cy="256"
     inkscape:window-x="488"
     inkscape:window-y="212"
     inkscape:window-maximized="0"
     inkscape:current-layer="svg3785" />
  <path
     fill="currentColor"
     d="M29.782 199.732L256 493.714 8.074 309.699c-6.856-5.142-9.712-13.996-7.141-21.993l28.849-87.974zm75.405-174.806c-3.142-8.854-15.709-8.854-18.851 0L29.782 199.732h131.961L105.187 24.926zm56.556 174.806L256 493.714l94.257-293.982H161.743zm349.324 87.974l-28.849-87.974L256 493.714l247.926-184.015c6.855-5.142 9.711-13.996 7.141-21.993zm-85.404-262.78c-3.142-8.854-15.709-8.854-18.851 0l-56.555 174.806h131.961L425.663 24.926z"
     id="path3783"
     style="fill:#558855;fill-opacity:1" />
</svg>
